# xmcd
#
# Track frame offsets: 
#        150
#        649
#        15334
#        29969
#        47076
#        61689
#        87797
#        103307
#        121751
#        135662
#        152536
#        168887
#        181637
#        194235
#        206709
#        220545
#        231177
#        250799
#        270599
#        284775
#        294685
#
# Disc length: 4086 seconds
#
# Revision: 0
# Processed by: cddbd v1.5.2PL0 Copyright (c) Steve Scherf et al.
# Submitted via: ExactAudioCopy v1.1
#
DISCID=2a0ff415
DTITLE=Various Artist - Mweieihhh! - CD 1
DYEAR=2019
DGENRE=Pop-Folk
TTITLE0=Intro - Mweieihhh!
TTITLE1=Jebroer, DJ Paul Elstak and Dr Phunk - Soldaat
TTITLE2=Snollebollekes - Springen Nondeju (2nd Bass Remix)
TTITLE3=Studio Vibe - Arendonk
TTITLE4=De Grote Peter Van De Veire Ochtendshow - Dans DJ Dans! (Vandi
TTITLE4=to Hardstyle Remix)
TTITLE5=2 Brothers On The 4th Floor - Never Alone
TTITLE6=DJ Paul Elstak - Rainbow In The Sky
TTITLE7=Captain Jack - Captain Jack
TTITLE8=Bonte Carlo - Seven Nation Army
TTITLE9=Crookers - Knobbers
TTITLE10=Da Tweekaz - Jägermeister
TTITLE11=DJ Maurice Feat. Snollebollekes - De Vloer Is Lava
TTITLE12=Snollebollekes and Gerard Joling - Total Loss
TTITLE13=Dillon Francis and DJ Snake - Get Low
TTITLE14=Arnny Montana - Nasi Goreng
TTITLE15=Zany and DV8 - Vreet Spirit
TTITLE16=Coone - Words From The Gang (Remix 2014)
TTITLE17=Wolfpack and Tony Junior - Unleash The Beast
TTITLE18=Scooter and Xillions - Rave Teacher (Somebody Like Me)
TTITLE19=Jebroer and Outsiders - Flitsmeister
TTITLE20=PartyFriex - Ik Heb Gezopen (Hardstyle Remix)
EXTD=
EXTT0=
EXTT1=
EXTT2=
EXTT3=
EXTT4=
EXTT5=
EXTT6=
EXTT7=
EXTT8=
EXTT9=
EXTT10=
EXTT11=
EXTT12=
EXTT13=
EXTT14=
EXTT15=
EXTT16=
EXTT17=
EXTT18=
EXTT19=
EXTT20=
PLAYORDER=
